<svg width="154" height="162" viewBox="0 0 154 162" fill="none" xmlns="http://www.w3.org/2000/svg">
<g clip-path="url(#clip0)" filter="url(#filter0_d)">
<path d="M115.065 128.193H120.189C122 128.191 123.468 129.659 123.469 131.468V146.868C123.471 148.679 122.004 150.148 120.194 150.148H33.8108C32.0001 150.15 30.5323 148.684 30.5308 146.873V131.473C30.5293 129.664 31.9956 128.194 33.8063 128.193H115.065Z" fill="#FFF200"/>
<path d="M123.469 7.13001V22.527C123.471 24.3362 122.004 25.8055 120.194 25.807H33.8108C32.0001 25.8085 30.5323 24.3407 30.5308 22.5315V7.13152C30.5293 5.32081 31.9956 3.8515 33.8063 3.84999H120.189C122 3.84849 123.468 5.3148 123.469 7.1255V7.13001Z" fill="#FFF200"/>
<path d="M115.065 112.467V128.193H39.67V112.39C39.67 108.334 41.5439 104.506 44.7487 102.02L77 77L109.89 102.02C113.151 104.503 115.065 108.367 115.065 112.467Z" fill="#E27683"/>
<path d="M114.7 26.1108V40.5408C114.7 44.5277 112.886 48.2995 109.772 50.7899L77 77L44.2284 50.7899C41.1138 48.2995 39.3001 44.5277 39.3001 40.5408V25.807H114.7V26.1108Z" fill="#E27683"/>
<path d="M118.58 40.5408V29.645H120.189C124.146 29.6555 127.375 26.4823 127.435 22.527V7.13001C127.376 3.17173 124.147 -0.0045222 120.189 -1.04582e-05H33.8108C29.8525 -0.0045222 26.6237 3.17173 26.565 7.13001V22.527C26.6252 26.4823 29.8541 29.6555 33.8108 29.645H35.42V40.5408C35.414 45.7022 37.7676 50.5839 41.8086 53.7962L70.7708 76.9534L42.3786 98.9781C38.2188 102.181 35.7885 107.14 35.805 112.39V124.355H33.8108C29.8541 124.344 26.6252 127.518 26.565 131.473V146.87C26.6237 150.828 29.8525 154.005 33.8108 154H120.189C124.147 154.005 127.376 150.828 127.435 146.87V131.473C127.375 127.518 124.146 124.344 120.189 124.355H118.965V112.467C118.941 107.165 116.46 102.175 112.247 98.957L83.2713 76.9233L112.197 53.7947C116.237 50.5839 118.588 45.7022 118.58 40.5408ZM34.265 7.69999H119.735V21.945H34.265V7.69999ZM119.735 146.3H34.265V132.055H39.0038C39.2204 132.055 39.4415 132.117 39.67 132.117C39.8986 132.117 40.1212 132.055 40.3378 132.055H114.398C114.614 132.055 114.837 132.117 115.065 132.117C115.294 132.117 115.515 132.055 115.733 132.055H119.735V146.3ZM111.265 112.467V124.355H43.505V112.39C43.4975 109.52 44.8269 106.812 47.1008 105.063L77.0196 81.8546L107.58 105.084C109.886 106.842 111.247 109.567 111.265 112.467ZM107.382 47.7821L77.0075 72.0717L46.6241 47.7821C44.4119 46.0301 43.1215 43.3621 43.12 40.5408V29.645H110.88V40.5408C110.882 43.3621 109.593 46.0285 107.382 47.7821Z" fill="white"/>
</g>
<defs>
<filter id="filter0_d" x="-4" y="0" width="162" height="162" filterUnits="userSpaceOnUse" color-interpolation-filters="sRGB">
<feFlood flood-opacity="0" result="BackgroundImageFix"/>
<feColorMatrix in="SourceAlpha" type="matrix" values="0 0 0 0 0 0 0 0 0 0 0 0 0 0 0 0 0 0 127 0"/>
<feOffset dy="4"/>
<feGaussianBlur stdDeviation="2"/>
<feColorMatrix type="matrix" values="0 0 0 0 0.866667 0 0 0 0 0.172549 0 0 0 0 0.172549 0 0 0 0.3 0"/>
<feBlend mode="normal" in2="BackgroundImageFix" result="effect1_dropShadow"/>
<feBlend mode="normal" in="SourceGraphic" in2="effect1_dropShadow" result="shape"/>
</filter>
<clipPath id="clip0">
<rect width="154" height="154" fill="white"/>
</clipPath>
</defs>
</svg>
