<svg width="122" height="174" viewBox="0 0 122 174" fill="none" xmlns="http://www.w3.org/2000/svg">
<g clip-path="url(#clip0)" filter="url(#filter0_d)">
<path d="M103.544 138.182H109.27C111.294 138.18 112.934 139.763 112.936 141.713V158.313C112.938 160.265 111.299 161.848 109.275 161.848H12.7297C10.706 161.85 9.06553 160.269 9.06384 158.318V141.718C9.06216 139.767 10.701 138.184 12.7247 138.182H103.544Z" fill="#E27683"/>
<path d="M112.936 7.68562V24.2824C112.938 26.2326 111.299 27.8164 109.275 27.818H12.7297C10.706 27.8196 9.06553 26.2374 9.06384 24.2872V7.68724C9.06216 5.73544 10.701 4.15164 12.7247 4.15001H109.27C111.294 4.14839 112.934 5.72896 112.936 7.68076V7.68562Z" fill="#E27683"/>
<path d="M103.544 121.23V138.182H19.2783V121.148C19.2783 116.775 21.3726 112.65 24.9545 109.97L61 83L97.7599 109.97C101.404 112.647 103.544 116.811 103.544 121.23Z" fill="#E27683"/>
<path d="M103.135 28.1454V43.6998C103.135 47.9974 101.108 52.0631 97.6271 54.7476L61 83L24.3729 54.7476C20.8919 52.0631 18.8648 47.9974 18.8648 43.6998V27.818H103.135V28.1454Z" fill="#E27683"/>
<path d="M107.472 43.6998V31.955H109.27C113.693 31.9664 117.301 28.5458 117.369 24.2824V7.68561C117.303 3.41889 113.694 -0.00485813 109.27 5.17467e-06H12.7298C8.30579 -0.00485813 4.69704 3.41889 4.63148 7.68561V24.2824C4.69872 28.5458 8.30747 31.9664 12.7298 31.955H14.5282V43.6998C14.5215 49.2634 17.152 54.5255 21.6684 57.9882L54.038 82.9498L22.3055 106.691C17.6563 110.144 14.9401 115.488 14.9585 121.148V134.045H12.7298C8.30747 134.034 4.69872 137.454 4.63148 141.718V158.314C4.69704 162.581 8.30579 166.005 12.7298 166H109.27C113.694 166.005 117.303 162.581 117.369 158.314V141.718C117.301 137.454 113.693 134.034 109.27 134.045H107.902V121.23C107.875 115.516 105.102 110.137 100.394 106.668L68.0091 82.9173L100.338 57.9865C104.853 54.5255 107.48 49.2634 107.472 43.6998ZM13.2374 8.3H108.763V23.655H13.2374V8.3ZM108.763 157.7H13.2374V142.345H18.5337C18.7757 142.345 19.0228 142.411 19.2783 142.411C19.5338 142.411 19.7825 142.345 20.0246 142.345H102.797C103.039 142.345 103.288 142.411 103.544 142.411C103.799 142.411 104.046 142.345 104.29 142.345H108.763V157.7ZM99.2962 121.23V134.045H23.5644V121.148C23.556 118.055 25.0419 115.135 27.5833 113.25L61.0219 88.2329L95.1781 113.272C97.7549 115.167 99.276 118.105 99.2962 121.23ZM94.9563 51.5054L61.0084 77.6877L27.0505 51.5054C24.578 49.6168 23.1358 46.741 23.1341 43.6998V31.955H98.8659V43.6998C98.8676 46.741 97.4271 49.6152 94.9563 51.5054Z" fill="white"/>
</g>
<defs>
<filter id="filter0_d" x="0" y="0" width="122" height="174" filterUnits="userSpaceOnUse" color-interpolation-filters="sRGB">
<feFlood flood-opacity="0" result="BackgroundImageFix"/>
<feColorMatrix in="SourceAlpha" type="matrix" values="0 0 0 0 0 0 0 0 0 0 0 0 0 0 0 0 0 0 127 0"/>
<feOffset dy="4"/>
<feGaussianBlur stdDeviation="2"/>
<feColorMatrix type="matrix" values="0 0 0 0 0.866667 0 0 0 0 0.172549 0 0 0 0 0.172549 0 0 0 0.3 0"/>
<feBlend mode="normal" in2="BackgroundImageFix" result="effect1_dropShadow"/>
<feBlend mode="normal" in="SourceGraphic" in2="effect1_dropShadow" result="shape"/>
</filter>
<clipPath id="clip0">
<rect width="114" height="166" fill="white" transform="translate(4)"/>
</clipPath>
</defs>
</svg>
