<?xml version="1.0" encoding="UTF-8" standalone="no"?>
<!-- Created with Inkscape (http://www.inkscape.org/) -->

<svg
   xmlns:dc="http://purl.org/dc/elements/1.1/"
   xmlns:cc="http://creativecommons.org/ns#"
   xmlns:rdf="http://www.w3.org/1999/02/22-rdf-syntax-ns#"
   xmlns:svg="http://www.w3.org/2000/svg"
   xmlns="http://www.w3.org/2000/svg"
   xmlns:sodipodi="http://sodipodi.sourceforge.net/DTD/sodipodi-0.dtd"
   xmlns:inkscape="http://www.inkscape.org/namespaces/inkscape"
   id="svg2"
   sodipodi:docname="peanutbutterjar2.svg"
   viewBox="0 0 339.95581 483.18787"
   version="1.1"
   inkscape:version="0.92.1 r15371"
   width="362.61954"
   height="515.40039">
  <defs
     id="defs4797" />
  <title
     id="title3983">J Is For Jar</title>
  <sodipodi:namedview
     id="base"
     bordercolor="#666666"
     inkscape:pageshadow="2"
     inkscape:window-y="-8"
     pagecolor="#ffffff"
     inkscape:window-height="706"
     inkscape:window-maximized="1"
     inkscape:zoom="0.45850426"
     inkscape:window-x="-8"
     showgrid="false"
     borderopacity="1.0"
     inkscape:current-layer="g9490"
     inkscape:cx="315.17897"
     inkscape:cy="74.237787"
     inkscape:window-width="1366"
     showborder="true"
     inkscape:pageopacity="0.0"
     inkscape:document-units="px"
     inkscape:snap-global="false"
     showguides="false"
     fit-margin-top="0"
     fit-margin-left="0"
     fit-margin-right="0"
     fit-margin-bottom="0" />
  <g
     id="layer1"
     inkscape:label="Layer 1"
     inkscape:groupmode="layer"
     transform="translate(946.12672,-390.51055)">
    <g
       id="g9494"
       transform="translate(1,-1)">
      <g
         id="g9490"
         style="stroke:#000000;stroke-width:3"
         transform="translate(-261.63,-81.822)">
        <text
           transform="scale(1.1602156,0.86190877)"
           x="-352.54614"
           y="1025.968"
           id="text5364"
           style="font-style:normal;font-variant:normal;font-weight:normal;font-stretch:normal;font-size:18.17170715px;line-height:1;font-family:'OCR A Extended';-inkscape-font-specification:'OCR A Extended';letter-spacing:0px;word-spacing:0px;fill:#eadd33;fill-opacity:1;stroke:#000000;stroke-width:1.03481424;stroke-miterlimit:4;stroke-dasharray:none;stroke-opacity:1"
           xml:space="preserve"><tspan
             style="font-style:normal;font-variant:normal;font-weight:normal;font-stretch:normal;font-family:Aharoni;-inkscape-font-specification:Aharoni;text-align:center;text-anchor:middle;fill:#eadd33;fill-opacity:1;stroke:#000000;stroke-width:1.03481424;stroke-miterlimit:4;stroke-dasharray:none;stroke-opacity:1"
             y="1040.2665"
             x="-352.54614"
             id="tspan5360"
             sodipodi:role="line" /><tspan
             id="tspan5362"
             style="font-style:normal;font-variant:normal;font-weight:normal;font-stretch:normal;font-family:Aharoni;-inkscape-font-specification:Aharoni;text-align:center;text-anchor:middle;fill:#eadd33;fill-opacity:1;stroke:#000000;stroke-width:1.03481424;stroke-miterlimit:4;stroke-dasharray:none;stroke-opacity:1"
             y="1058.4382"
             x="-352.54614"
             sodipodi:role="line" /></text>
        <g
           id="g5432"
           transform="matrix(2.8114524,0,0,2.6423074,626.29014,-1571.2278)">
          <path
             inkscape:connector-curvature="0"
             id="path5344"
             d="m -399,776.04253 c -25.78125,1.00447 -38.16964,2.67857 -38.16964,2.67857 l -19.08482,10.37947 -3.0134,6.02678 0.33482,13.39286 6.69643,7.70089 20.08929,6.02679 35.82589,3.01339 28.45983,-5.69196 12.05356,-7.03125 3.01339,-9.375 -1.6741,-13.05804 -17.41072,-9.70982 -21.42857,-4.01786 z"
             style="fill:#a71e23;fill-opacity:1;stroke:none;stroke-width:0.9375px;stroke-linecap:butt;stroke-linejoin:miter;stroke-opacity:1" />
          <path
             inkscape:connector-curvature="0"
             id="path5342"
             d="m -460.06598,807.5714 -3.88938,11.6631 -0.33482,112.16517 8.70536,9.375 17.07589,9.04018 28.79464,5.02232 33.48214,-4.01785 24.10715,-11.04911 5.02232,-10.04464 -1.00447,-114.84375 -5.35714,-6.69643 -7.03125,8.03571 -24.77678,8.37054 -29.46429,1.00446 -26.45089,-4.6875 -14.0625,-8.03571 z"
             style="fill:#c88444;fill-opacity:1;stroke:none;stroke-width:0.9375px;stroke-linecap:butt;stroke-linejoin:miter;stroke-opacity:1" />
          <path
             sodipodi:nodetypes="cccscccccccscccscccccccccccccccccccccccccccccccscscccsccscccccscscscc"
             inkscape:connector-curvature="0"
             d="m -413.56,955.04 c -9.1505,-0.7769 -16.669,-1.9787 -22.671,-3.6235 -16.467,-4.5131 -26.904,-12.166 -28.526,-20.918 -0.21133,-1.1397 -0.3299,-21.801 -0.3299,-57.486 0,-48.983 0.0611,-55.941 0.50632,-57.65 0.60205,-2.3114 1.8227,-4.6462 3.3806,-6.4663 l 1.134,-1.3248 0.0494,-7.0102 c 0.0563,-7.9879 0.21954,-8.6127 3.0825,-11.797 9.3612,-10.412 40.89,-16.043 69.138,-12.348 14.647,1.916 26.49,6.24 32.11,11.723 3.5579,3.4715 3.7183,4.0058 3.7781,12.585 l 0.05,7.1738 0.98948,1.2004 c 1.4455,1.7536 2.6176,4.0526 3.1935,6.2635 0.44521,1.7093 0.50632,8.6676 0.50632,57.65 0,35.685 -0.11857,56.346 -0.3299,57.486 -2.1527,11.61 -19.356,20.854 -44.519,23.922 -3.9586,0.4827 -18.298,0.8952 -21.542,0.6197 z m 18.001,-2.1361 c 22.236,-1.9142 40.158,-9.5873 45.086,-19.303 l 1.156,-2.2792 v -57.985 -29.73203 -28.25297 l -0.70619,-1.4864 c -0.3884,-0.8175 -1.1815,-2.1343 -1.7624,-2.9263 l -1.0562,-1.44 -1.0823,1.6051 c -4.6913,6.9576 -20.843,12.645 -40.644,14.312 -5.0859,0.4281 -17.677,0.42964 -22.791,0.003 -14.963,-1.2488 -28.183,-4.8674 -35.462,-9.7063 -2.1261,-1.4134 -5.0895,-4.2335 -5.9322,-5.6453 -0.37878,-0.6346 -0.43372,-0.6151 -1.3956,0.49545 -0.55073,0.63583 -1.4042,1.9736 -1.8965,2.9727 l -0.89521,1.8166 v 57.985 57.985 l 1.1561,2.2792 c 4.8557,9.5733 22.834,17.368 44.451,19.272 4.6958,0.4137 17.126,0.4317 21.774,0.031 z m 4.9545,-129.6 c 17.347,-2.1076 30.135,-6.7909 34.891,-12.778 1.6597,-2.0897 1.9796,-3.0563 2.1732,-6.5662 l 0.17304,-3.1379 -2.1033,2.0502 c -4.8959,4.7723 -13.114,8.2706 -25.059,10.668 -8.7928,1.7644 -13.234,2.1376 -25.433,2.1376 -12.198,0 -16.625,-0.37205 -25.448,-2.1385 -11.606,-2.3236 -19.699,-5.7113 -24.603,-10.298 l -2.1369,-1.9989 v 3.0238 c 0,2.3933 0.14073,3.2996 0.67491,4.3467 2.1085,4.133 7.5488,7.6143 16.501,10.559 6.9885,2.2989 15.083,3.8291 24.277,4.5892 5.3042,0.43852 20.985,0.16418 26.094,-0.45652 z m 0,-9.912 c 14.238,-1.7398 24.978,-5.0178 31.36,-9.5714 7.2404,-5.1667 7.3894,-11.219 0.3983,-16.179 -9.4934,-6.7353 -26.48,-10.532 -47.117,-10.532 -17.704,0 -32.676,2.774 -42.643,7.9005 -6.5206,3.354 -9.5444,6.7424 -9.5444,10.696 0,5.1555 5.9773,9.8736 17.176,13.557 6.9885,2.2989 15.083,3.8291 24.277,4.5892 5.3242,0.44017 20.988,0.16432 26.094,-0.45952 z"
             style="fill:#000000;stroke:#000000;stroke-width:3"
             id="path8716" />
          <path
             sodipodi:nodetypes="ccccc"
             inkscape:connector-curvature="0"
             id="path5346"
             d="m -449.57432,857.96257 v 52.94522 c 26.93508,10.24348 58.21094,7.52836 84.8121,-2.59171 l 1.00173,-51.46424 c -32.61148,9.99665 -54.87187,9.99665 -85.81383,1.11073 z"
             style="fill:#72a5c8;fill-opacity:1;stroke:#000000;stroke-width:4.9224968;stroke-linecap:round;stroke-linejoin:round;stroke-miterlimit:4;stroke-dasharray:none;stroke-opacity:1" />
          <path
             inkscape:connector-curvature="0"
             id="path5409"
             d="m -428.27399,877.39576 -9.10883,-8.815 6.46433,19.09917 h -13.2225 l 10.87183,4.11367 -7.63966,14.10401 13.81017,-7.63967 3.23216,11.75333 5.58284,-10.28417 9.40267,10.28417 0.58766,-7.63967 8.81501,6.46434 -0.8815,-9.40267 13.81017,7.9335 -2.93834,-9.6965 15.57317,5.58284 -6.1705,-7.63967 7.9335,-1.46918 -6.46433,-4.40749 9.10883,-11.45951 -8.22733,2.35067 4.99517,-12.341 -10.28417,7.34583 -0.8815,-8.52117 -6.46434,7.34584 -2.35066,-5.58283 -2.64451,5.87666 -8.52116,-4.4075 0.29383,5.58284 -7.34584,-7.052 0.29384,7.34583 -6.1705,-6.75817 0.29383,9.40267 -7.9335,-9.99033 z"
             style="fill:#c1dfef;fill-opacity:1;stroke:#5c7e80;stroke-width:0.9375px;stroke-linecap:round;stroke-linejoin:bevel;stroke-opacity:1" />
          <g
             id="text5350"
             style="font-style:normal;font-variant:normal;font-weight:normal;font-stretch:normal;font-size:18.17170715px;line-height:1;font-family:'OCR A Extended';-inkscape-font-specification:'OCR A Extended';letter-spacing:0px;word-spacing:0px;fill:#eadd33;fill-opacity:1;stroke:#000000;stroke-width:1.03481424;stroke-miterlimit:4;stroke-dasharray:none;stroke-opacity:1"
             transform="translate(0,-11.25)"
             aria-label="Peanut">
            <path
               id="path5383"
               style="font-style:normal;font-variant:normal;font-weight:normal;font-stretch:normal;font-family:Aharoni;-inkscape-font-specification:Aharoni;text-align:center;text-anchor:middle;fill:#eadd33;fill-opacity:1;stroke:#000000;stroke-width:1.03481424;stroke-miterlimit:4;stroke-dasharray:none;stroke-opacity:1"
               d="m -424.12136,889.78353 q -0.33383,1.60718 -1.30798,2.50137 -1.26499,1.16003 -3.54111,0.68726 l -1.92862,-0.4006 -0.81562,3.92674 -3.08406,-0.64059 2.46312,-11.85841 4.90842,1.01954 q 2.09368,0.43488 2.92519,1.88537 0.7199,1.24607 0.38066,2.87932 z m -3.2129,-0.63111 q 0.13714,-0.66025 -0.17259,-1.13238 -0.29924,-0.47903 -1.2288,-0.67211 l -1.03381,-0.21473 -0.61172,2.94506 1.02512,0.21292 q 0.99906,0.20752 1.46284,-0.14926 0.42002,-0.32056 0.55896,-0.9895 z"
               inkscape:connector-curvature="0" />
            <path
               id="path5385"
               style="font-style:normal;font-variant:normal;font-weight:normal;font-stretch:normal;font-family:Aharoni;-inkscape-font-specification:Aharoni;text-align:center;text-anchor:middle;fill:#eadd33;fill-opacity:1;stroke:#000000;stroke-width:1.03481424;stroke-miterlimit:4;stroke-dasharray:none;stroke-opacity:1"
               d="m -415.34305,895.11186 -6.09742,-0.55144 q -0.16703,1.8469 1.61801,2.00834 0.91019,0.0823 1.46655,-0.65137 l 2.80128,0.25334 q -0.4365,1.08307 -1.14557,1.63367 -1.28404,0.99752 -3.27232,0.8177 -2.52734,-0.22857 -3.66079,-1.88126 -0.85048,-1.2351 -0.70103,-2.88759 0.17742,-1.96178 1.48148,-3.08221 1.30406,-1.12043 3.47792,-0.92383 2.67756,0.24215 3.65053,2.29015 0.54599,1.15411 0.41492,2.60335 z m -2.55383,-1.90588 q -0.18621,-1.38884 -1.52941,-1.51032 -0.7423,-0.0671 -1.24097,0.32432 -0.39348,0.31187 -0.54343,0.88631 z"
               inkscape:connector-curvature="0" />
            <path
               id="path5387"
               style="font-style:normal;font-variant:normal;font-weight:normal;font-stretch:normal;font-family:Aharoni;-inkscape-font-specification:Aharoni;text-align:center;text-anchor:middle;fill:#eadd33;fill-opacity:1;stroke:#000000;stroke-width:1.03481424;stroke-miterlimit:4;stroke-dasharray:none;stroke-opacity:1"
               d="m -404.72027,898.51383 -2.9095,0.0691 -0.0217,-0.91365 q -0.40448,0.53326 -0.82457,0.78287 -0.73521,0.43461 -1.68434,0.45716 -1.53458,0.0364 -2.75716,-0.99069 -1.45805,-1.22567 -1.50735,-3.30135 -0.0501,-2.11115 1.38355,-3.40551 1.13821,-1.02996 2.64618,-1.06578 0.87817,-0.0209 1.65874,0.33337 0.44858,0.20235 0.9303,0.67906 l -0.0192,-0.80721 2.90949,-0.0691 z m -2.91856,-4.04887 q -0.0185,-0.78059 -0.58135,-1.30863 -0.56303,-0.5369 -1.34363,-0.51836 -0.8693,0.0207 -1.41254,0.69034 -0.43975,0.54297 -0.42353,1.22599 0.0162,0.68302 0.48126,1.2045 0.56556,0.64334 1.44373,0.62248 0.78946,-0.0187 1.3177,-0.5727 0.53712,-0.55415 0.51836,-1.34362 z"
               inkscape:connector-curvature="0" />
            <path
               id="path5389"
               style="font-style:normal;font-variant:normal;font-weight:normal;font-stretch:normal;font-family:Aharoni;-inkscape-font-specification:Aharoni;text-align:center;text-anchor:middle;fill:#eadd33;fill-opacity:1;stroke:#000000;stroke-width:1.03481424;stroke-miterlimit:4;stroke-dasharray:none;stroke-opacity:1"
               d="m -394.10111,897.21518 -2.8864,0.37229 -0.53346,-4.136 q -0.13961,-1.08241 -0.43141,-1.40263 -0.42777,-0.47266 -1.14937,-0.37959 -0.66,0.0851 -1.05091,0.59181 -0.35259,0.45702 -0.24136,1.31942 l 0.56411,4.3736 -2.88641,0.37229 -1.0533,-8.16641 2.88641,-0.37229 0.13279,1.0296 q 0.42669,-0.64549 0.81845,-0.93757 0.63646,-0.47574 1.66606,-0.60853 1.32,-0.17026 2.23914,0.43585 1.04602,0.68816 1.25486,2.30736 z"
               inkscape:connector-curvature="0" />
            <path
               id="path5391"
               style="font-style:normal;font-variant:normal;font-weight:normal;font-stretch:normal;font-family:Aharoni;-inkscape-font-specification:Aharoni;text-align:center;text-anchor:middle;fill:#eadd33;fill-opacity:1;stroke:#000000;stroke-width:1.03481424;stroke-miterlimit:4;stroke-dasharray:none;stroke-opacity:1"
               d="m -384.19697,892.04929 q 0.48829,2.24561 -1.47569,3.44448 -0.81838,0.49575 -2.09292,0.77289 -2.50572,0.54484 -3.86588,-0.44879 -0.8633,-0.62951 -1.14044,-1.90404 l -1.11042,-5.10681 2.84386,-0.61837 0.99165,4.56058 q 0.16402,0.75431 0.60547,1.03061 0.47311,0.29666 1.16674,0.14584 0.68495,-0.14894 0.99216,-0.61527 0.28686,-0.43466 0.12284,-1.18898 l -0.99165,-4.56058 2.84386,-0.61837 z"
               inkscape:connector-curvature="0" />
            <path
               id="path5393"
               style="font-style:normal;font-variant:normal;font-weight:normal;font-stretch:normal;font-family:Aharoni;-inkscape-font-specification:Aharoni;text-align:center;text-anchor:middle;fill:#eadd33;fill-opacity:1;stroke:#000000;stroke-width:1.03481424;stroke-miterlimit:4;stroke-dasharray:none;stroke-opacity:1"
               d="m -378.47742,887.50592 -1.59945,0.44139 1.5531,5.628 -2.80545,0.77419 -1.5531,-5.628 -0.92374,0.25491 -0.63729,-2.30936 0.92374,-0.25492 -0.65853,-2.38634 2.80545,-0.77419 0.65853,2.38634 1.59945,-0.44138 z"
               inkscape:connector-curvature="0" />
          </g>
          <path
             sodipodi:nodetypes="cc"
             inkscape:connector-curvature="0"
             id="path5354"
             d="m -445.49816,892.38127 c 27.5224,10.38211 52.10646,6.66022 78.15969,-2.35067"
             style="fill:none;stroke:none;stroke-width:0.9375px;stroke-linecap:butt;stroke-linejoin:miter;stroke-opacity:1" />
          <g
             id="text5370"
             style="font-style:normal;font-variant:normal;font-weight:normal;font-stretch:normal;font-size:18.17170715px;line-height:1;font-family:'OCR A Extended';-inkscape-font-specification:'OCR A Extended';letter-spacing:0px;word-spacing:0px;fill:#eadd33;fill-opacity:1;stroke:#000000;stroke-width:1.03481424;stroke-miterlimit:4;stroke-dasharray:none;stroke-opacity:1"
             transform="translate(1.875,-9.375)"
             aria-label="Butter">
            <path
               id="path5396"
               style="font-style:normal;font-variant:normal;font-weight:normal;font-stretch:normal;font-family:Aharoni;-inkscape-font-specification:Aharoni;text-align:center;text-anchor:middle;fill:#eadd33;fill-opacity:1;stroke:#000000;stroke-width:1.03481424;stroke-miterlimit:4;stroke-dasharray:none;stroke-opacity:1"
               d="m -420.88733,907.44295 q -0.21542,1.34036 -1.11275,2.05887 -1.29953,1.0403 -3.55973,0.67705 l -4.98472,-0.80114 1.92188,-11.95806 4.62554,0.74341 q 3.36402,0.54066 2.86278,3.65939 -0.15065,0.93738 -0.61996,1.509 -0.39251,0.48511 -1.09256,0.75903 1.38884,0.52876 1.7779,1.463 0.34776,0.85572 0.18162,1.88945 z m -3.18661,-5.67055 q 0.13094,-0.81472 -0.5627,-1.19581 -0.24873,-0.12984 -0.68676,-0.20024 l -0.56943,-0.0915 -0.37593,2.33905 0.56944,0.0915 q 0.80596,0.12953 1.21974,-0.20837 0.33102,-0.27032 0.40564,-0.73463 z m 0.11043,4.96047 q 0.16755,-1.04249 -0.88043,-1.39964 -0.33321,-0.10748 -1.16545,-0.24124 l -0.63952,-0.10278 -0.40549,2.52302 0.69207,0.11123 q 1.19143,0.19148 1.70955,-0.0128 0.58508,-0.22949 0.68927,-0.87777 z"
               inkscape:connector-curvature="0" />
            <path
               id="path5398"
               style="font-style:normal;font-variant:normal;font-weight:normal;font-stretch:normal;font-family:Aharoni;-inkscape-font-specification:Aharoni;text-align:center;text-anchor:middle;fill:#eadd33;fill-opacity:1;stroke:#000000;stroke-width:1.03481424;stroke-miterlimit:4;stroke-dasharray:none;stroke-opacity:1"
               d="m -410.79024,908.34121 q -0.0943,2.29615 -2.29728,2.96051 -0.91701,0.27315 -2.22023,0.21963 -2.56211,-0.10522 -3.62746,-1.40998 -0.67646,-0.82702 -0.62294,-2.13023 l 0.21444,-5.22174 2.90786,0.11942 -0.1915,4.66321 q -0.0317,0.77129 0.32574,1.15007 0.38293,0.40646 1.09216,0.43559 0.70037,0.0288 1.11533,-0.34494 0.38728,-0.34819 0.41895,-1.11948 l 0.19151,-4.66322 2.90786,0.11942 z"
               inkscape:connector-curvature="0" />
            <path
               id="path5400"
               style="font-style:normal;font-variant:normal;font-weight:normal;font-stretch:normal;font-family:Aharoni;-inkscape-font-specification:Aharoni;text-align:center;text-anchor:middle;fill:#eadd33;fill-opacity:1;stroke:#000000;stroke-width:1.03481424;stroke-miterlimit:4;stroke-dasharray:none;stroke-opacity:1"
               d="m -404.29568,905.17774 -1.65751,0.0755 0.26549,5.83233 -2.90731,0.13234 -0.26548,-5.83233 -0.95729,0.0436 -0.10893,-2.3932 0.95728,-0.0436 -0.11257,-2.47298 2.9073,-0.13234 0.11257,2.47298 1.65752,-0.0754 z"
               inkscape:connector-curvature="0" />
            <path
               id="path5402"
               style="font-style:normal;font-variant:normal;font-weight:normal;font-stretch:normal;font-family:Aharoni;-inkscape-font-specification:Aharoni;text-align:center;text-anchor:middle;fill:#eadd33;fill-opacity:1;stroke:#000000;stroke-width:1.03481424;stroke-miterlimit:4;stroke-dasharray:none;stroke-opacity:1"
               d="m -398.66226,904.58828 -1.65045,0.17056 0.60015,5.80745 -2.89489,0.29916 -0.60015,-5.80745 -0.9532,0.0985 -0.24626,-2.383 0.9532,-0.0985 -0.25447,-2.46243 2.89489,-0.29916 0.25447,2.46243 1.65045,-0.17056 z"
               inkscape:connector-curvature="0" />
            <path
               id="path5404"
               style="font-style:normal;font-variant:normal;font-weight:normal;font-stretch:normal;font-family:Aharoni;-inkscape-font-specification:Aharoni;text-align:center;text-anchor:middle;fill:#eadd33;fill-opacity:1;stroke:#000000;stroke-width:1.03481424;stroke-miterlimit:4;stroke-dasharray:none;stroke-opacity:1"
               d="m -388.98286,905.24245 -6.03062,1.05555 q 0.31972,1.82667 2.08521,1.51765 0.90022,-0.15757 1.2463,-1.01083 l 2.77059,-0.48494 q -0.13936,1.15938 -0.68057,1.87564 -0.97994,1.2975 -2.94645,1.6417 -2.49965,0.43752 -4.0244,-0.86296 -1.14279,-0.97098 -1.42886,-2.60537 -0.33962,-1.94029 0.62765,-3.36167 0.96726,-1.42139 3.11731,-1.79772 2.64823,-0.46352 4.12099,1.26041 0.82771,0.97209 1.0786,2.40546 z m -2.96205,-1.17501 q -0.54149,-1.29243 -1.86997,-1.0599 -0.73417,0.1285 -1.11369,0.63632 -0.29868,0.40358 -0.29385,0.99725 z"
               inkscape:connector-curvature="0" />
            <path
               id="path5406"
               style="font-style:normal;font-variant:normal;font-weight:normal;font-stretch:normal;font-family:Aharoni;-inkscape-font-specification:Aharoni;text-align:center;text-anchor:middle;fill:#eadd33;fill-opacity:1;stroke:#000000;stroke-width:1.03481424;stroke-miterlimit:4;stroke-dasharray:none;stroke-opacity:1"
               d="m -382.06683,901.5115 q -0.66416,-0.13947 -1.27621,0.01 -1.39652,0.34044 -1.5329,1.57921 -0.0543,0.45161 0.11592,1.14987 l 0.83429,3.42231 -2.8275,0.68929 -1.95019,-7.99977 2.82751,-0.68929 0.31943,1.31031 q 0.27804,-0.80754 0.71961,-1.24396 0.59739,-0.58401 1.55426,-0.81727 0.22413,-0.0546 0.55801,-0.10864 z"
               inkscape:connector-curvature="0" />
          </g>
          <path
             style="fill:none;stroke:none;stroke-width:0.9375px;stroke-linecap:butt;stroke-linejoin:miter;stroke-opacity:1"
             d="m -445.20433,904.97394 c 27.5224,10.38211 52.10646,6.66022 78.15969,-2.35067"
             id="path5374"
             inkscape:connector-curvature="0"
             sodipodi:nodetypes="cc" />
        </g>
      </g>
    </g>
  </g>
  <metadata
     id="metadata4794">
    <rdf:RDF>
      <cc:Work>
        <dc:format>image/svg+xml</dc:format>
        <dc:type
           rdf:resource="http://purl.org/dc/dcmitype/StillImage" />
        <cc:license
           rdf:resource="http://creativecommons.org/publicdomain/zero/1.0/" />
        <dc:publisher>
          <cc:Agent
             rdf:about="http://openclipart.org/">
            <dc:title>Openclipart</dc:title>
          </cc:Agent>
        </dc:publisher>
        <dc:title>J Is For Jar</dc:title>
        <dc:date>2010-10-04T20:14:18</dc:date>
        <dc:description>Outlines of an uppercase and lowercase letter j, with a jar for coloring. Typeface is Let's Trace (public domain).</dc:description>
        <dc:source>https://openclipart.org/detail/88633/j-is-for-jar-by-mazeo</dc:source>
        <dc:creator>
          <cc:Agent>
            <dc:title>mazeo</dc:title>
          </cc:Agent>
        </dc:creator>
        <dc:subject>
          <rdf:Bag>
            <rdf:li>alphabet</rdf:li>
            <rdf:li>coloring book</rdf:li>
            <rdf:li>colouring book</rdf:li>
            <rdf:li>jar</rdf:li>
            <rdf:li>letter J</rdf:li>
            <rdf:li>remix</rdf:li>
          </rdf:Bag>
        </dc:subject>
      </cc:Work>
      <cc:License
         rdf:about="http://creativecommons.org/publicdomain/zero/1.0/">
        <cc:permits
           rdf:resource="http://creativecommons.org/ns#Reproduction" />
        <cc:permits
           rdf:resource="http://creativecommons.org/ns#Distribution" />
        <cc:permits
           rdf:resource="http://creativecommons.org/ns#DerivativeWorks" />
      </cc:License>
    </rdf:RDF>
  </metadata>
</svg>
